<svg width="309" height="73" viewBox="0 0 309 73" fill="none" xmlns="http://www.w3.org/2000/svg">
<path d="M32.6924 34.5276V31.5177H50.6275V34.5276H43.3969V54.6919H39.9117V34.5276H32.6924ZM59.2896 55.0427C57.5772 55.0427 56.1024 54.6768 54.8652 53.9451C53.6356 53.2058 52.6851 52.1685 52.0137 50.8333C51.3498 49.4905 51.0179 47.9177 51.0179 46.1147C51.0179 44.3344 51.3498 42.7653 52.0137 41.4074C52.6851 40.0496 53.6205 38.9897 54.8199 38.2278C56.0269 37.4659 57.4376 37.0849 59.0519 37.0849C60.0326 37.0849 60.9831 37.2471 61.9035 37.5715C62.8238 37.8959 63.6498 38.4051 64.3816 39.0991C65.1133 39.7931 65.6904 40.6946 66.1128 41.8035C66.5353 42.9049 66.7465 44.2439 66.7465 45.8205V47.02H52.9302V44.4853H63.4311C63.4311 43.5951 63.25 42.8068 62.8879 42.1203C62.5258 41.4263 62.0166 40.8794 61.3603 40.4796C60.7116 40.0798 59.9496 39.8798 59.0746 39.8798C58.1241 39.8798 57.2943 40.1137 56.5852 40.5814C55.8836 41.0416 55.3404 41.6451 54.9557 42.3919C54.5785 43.1312 54.3899 43.9346 54.3899 44.8021V46.7823C54.3899 47.9441 54.5936 48.9323 55.001 49.747C55.4159 50.5617 55.993 51.1841 56.7323 51.6141C57.4715 52.0365 58.3353 52.2477 59.3235 52.2477C59.9647 52.2477 60.5494 52.1572 61.0774 51.9762C61.6055 51.7876 62.0619 51.5085 62.4466 51.1388C62.8313 50.7692 63.1255 50.3128 63.3292 49.7696L66.5315 50.3467C66.275 51.2897 65.8149 52.1157 65.151 52.8248C64.4947 53.5264 63.6687 54.0733 62.6729 54.4656C61.6847 54.8503 60.5569 55.0427 59.2896 55.0427ZM75.5585 55.0766C74.4571 55.0766 73.4614 54.8729 72.5712 54.4656C71.681 54.0507 70.9757 53.451 70.4552 52.6664C69.9422 51.8819 69.6857 50.92 69.6857 49.7809C69.6857 48.8003 69.8743 47.9931 70.2515 47.3594C70.6287 46.7258 71.1379 46.2241 71.7791 45.8545C72.4203 45.4848 73.137 45.2057 73.9291 45.0171C74.7212 44.8285 75.5283 44.6852 76.3506 44.5871C77.3916 44.4664 78.2365 44.3683 78.8853 44.2929C79.534 44.2099 80.0055 44.0779 80.2997 43.8969C80.5939 43.7158 80.741 43.4216 80.741 43.0143V42.935C80.741 41.9468 80.4619 41.1811 79.9037 40.638C79.353 40.0948 78.5307 39.8233 77.4369 39.8233C76.2978 39.8233 75.4001 40.076 74.7438 40.5814C74.095 41.0793 73.6462 41.6338 73.3972 42.2448L70.2176 41.5206C70.5947 40.4645 71.1454 39.612 71.8696 38.9633C72.6014 38.307 73.4425 37.8317 74.393 37.5375C75.3435 37.2358 76.343 37.0849 77.3916 37.0849C78.0856 37.0849 78.8212 37.1679 79.5982 37.3338C80.3827 37.4923 81.1144 37.7865 81.7934 38.2165C82.4798 38.6464 83.0418 39.2613 83.4794 40.0609C83.9169 40.853 84.1357 41.8827 84.1357 43.15V54.6919H80.8315V52.3156H80.6958C80.477 52.7532 80.1488 53.1832 79.7113 53.6056C79.2738 54.028 78.7118 54.3788 78.0253 54.6579C77.3388 54.9371 76.5166 55.0766 75.5585 55.0766ZM76.294 52.3609C77.2294 52.3609 78.0291 52.1761 78.6929 51.8064C79.3643 51.4368 79.8735 50.954 80.2205 50.358C80.5751 49.7545 80.7523 49.1096 80.7523 48.4231V46.1826C80.6316 46.3033 80.3978 46.4165 80.0508 46.5221C79.7113 46.6201 79.3228 46.7069 78.8853 46.7823C78.4477 46.8502 78.0215 46.9143 77.6066 46.9747C77.1917 47.0275 76.8447 47.0728 76.5656 47.1105C75.9093 47.1935 75.3096 47.333 74.7664 47.5292C74.2308 47.7253 73.8008 48.0082 73.4764 48.3778C73.1596 48.7399 73.0012 49.2227 73.0012 49.8262C73.0012 50.6636 73.3105 51.2972 73.9291 51.7272C74.5476 52.1497 75.336 52.3609 76.294 52.3609ZM88.6421 54.6919V37.3112H91.8897V40.1401H92.1047C92.4668 39.1821 93.0589 38.4352 93.8812 37.8996C94.7035 37.3565 95.6879 37.0849 96.8346 37.0849C97.9963 37.0849 98.9694 37.3565 99.754 37.8996C100.546 38.4428 101.131 39.1896 101.508 40.1401H101.689C102.104 39.2122 102.764 38.4729 103.669 37.9223C104.574 37.364 105.653 37.0849 106.905 37.0849C108.482 37.0849 109.768 37.579 110.764 38.5672C111.767 39.5555 112.269 41.0453 112.269 43.0369V54.6919H108.886V43.3537C108.886 42.1769 108.565 41.3245 107.924 40.7964C107.283 40.2683 106.517 40.0043 105.627 40.0043C104.525 40.0043 103.669 40.3438 103.058 41.0227C102.447 41.6941 102.142 42.5579 102.142 43.614V54.6919H98.7695V43.1387C98.7695 42.1958 98.4753 41.4376 97.8869 40.8643C97.2985 40.291 96.5328 40.0043 95.5898 40.0043C94.9486 40.0043 94.3565 40.174 93.8133 40.5135C93.2777 40.8454 92.8439 41.3094 92.512 41.9053C92.1876 42.5013 92.0254 43.1915 92.0254 43.9761V54.6919H88.6421ZM129.828 41.5545L126.761 42.0977C126.633 41.7054 126.429 41.332 126.15 40.9775C125.879 40.6229 125.509 40.3325 125.041 40.1062C124.574 39.8798 123.989 39.7667 123.287 39.7667C122.329 39.7667 121.53 39.9817 120.889 40.4117C120.247 40.8341 119.927 41.381 119.927 42.0524C119.927 42.6333 120.142 43.101 120.572 43.4556C121.002 43.8101 121.696 44.1005 122.654 44.3269L125.415 44.9605C127.014 45.3302 128.206 45.8997 128.991 46.6692C129.775 47.4386 130.167 48.4382 130.167 49.6678C130.167 50.7088 129.866 51.6367 129.262 52.4514C128.666 53.2586 127.833 53.8923 126.761 54.3524C125.698 54.8126 124.464 55.0427 123.061 55.0427C121.115 55.0427 119.527 54.6278 118.297 53.798C117.068 52.9606 116.313 51.7725 116.034 50.2336L119.304 49.7357C119.508 50.5881 119.927 51.2331 120.56 51.6706C121.194 52.1006 122.02 52.3156 123.039 52.3156C124.147 52.3156 125.034 52.0855 125.698 51.6254C126.362 51.1577 126.693 50.5881 126.693 49.9167C126.693 49.3736 126.49 48.9172 126.082 48.5476C125.683 48.1779 125.068 47.8988 124.238 47.7102L121.296 47.0652C119.674 46.6956 118.475 46.1072 117.698 45.3C116.928 44.4928 116.543 43.4706 116.543 42.2335C116.543 41.2075 116.83 40.3098 117.403 39.5404C117.977 38.7709 118.769 38.1712 119.78 37.7412C120.791 37.3037 121.948 37.0849 123.254 37.0849C125.132 37.0849 126.61 37.4923 127.689 38.307C128.768 39.1142 129.481 40.1967 129.828 41.5545ZM161.84 39.0538H158.309C158.173 38.2994 157.921 37.6356 157.551 37.0623C157.181 36.489 156.729 36.0024 156.193 35.6026C155.657 35.2028 155.058 34.901 154.394 34.6973C153.738 34.4936 153.04 34.3918 152.301 34.3918C150.965 34.3918 149.77 34.7275 148.714 35.3989C147.665 36.0703 146.835 37.0547 146.224 38.3522C145.621 39.6498 145.319 41.2339 145.319 43.1048C145.319 44.9907 145.621 46.5824 146.224 47.8799C146.835 49.1775 147.669 50.1581 148.725 50.822C149.781 51.4858 150.969 51.8177 152.289 51.8177C153.021 51.8177 153.715 51.7197 154.371 51.5235C155.035 51.3199 155.635 51.0219 156.17 50.6296C156.706 50.2373 157.159 49.7583 157.528 49.1925C157.905 48.6192 158.166 47.9629 158.309 47.2236L161.84 47.2349C161.651 48.374 161.285 49.4226 160.742 50.3807C160.206 51.3312 159.516 52.1534 158.671 52.8475C157.834 53.5339 156.876 54.0658 155.797 54.443C154.718 54.8201 153.541 55.0087 152.267 55.0087C150.26 55.0087 148.472 54.5335 146.903 53.583C145.334 52.6249 144.097 51.2557 143.192 49.4754C142.294 47.6951 141.845 45.5716 141.845 43.1048C141.845 40.6304 142.298 38.5069 143.203 36.7341C144.108 34.9538 145.345 33.5884 146.914 32.6379C148.483 31.6798 150.268 31.2008 152.267 31.2008C153.496 31.2008 154.643 31.3781 155.707 31.7327C156.778 32.0797 157.74 32.5926 158.592 33.2716C159.444 33.943 160.15 34.7652 160.708 35.7384C161.266 36.7039 161.643 37.8091 161.84 39.0538ZM169.135 44.3721V54.6919H165.752V31.5177H169.09V40.1401H169.305C169.712 39.2047 170.335 38.4616 171.172 37.9109C172.009 37.3603 173.103 37.0849 174.454 37.0849C175.645 37.0849 176.686 37.3301 177.577 37.8204C178.474 38.3108 179.168 39.0425 179.659 40.0156C180.157 40.9812 180.406 42.1882 180.406 43.6366V54.6919H177.022V44.044C177.022 42.7691 176.694 41.7809 176.038 41.0793C175.381 40.3702 174.469 40.0156 173.299 40.0156C172.5 40.0156 171.783 40.1854 171.149 40.5248C170.523 40.8643 170.029 41.3622 169.667 42.0185C169.312 42.6672 169.135 43.4518 169.135 44.3721ZM192.411 55.0427C190.699 55.0427 189.224 54.6768 187.987 53.9451C186.757 53.2058 185.807 52.1685 185.135 50.8333C184.472 49.4905 184.14 47.9177 184.14 46.1147C184.14 44.3344 184.472 42.7653 185.135 41.4074C185.807 40.0496 186.742 38.9897 187.942 38.2278C189.149 37.4659 190.559 37.0849 192.174 37.0849C193.154 37.0849 194.105 37.2471 195.025 37.5715C195.946 37.8959 196.772 38.4051 197.503 39.0991C198.235 39.7931 198.812 40.6946 199.235 41.8035C199.657 42.9049 199.868 44.2439 199.868 45.8205V47.02H186.052V44.4853H196.553C196.553 43.5951 196.372 42.8068 196.01 42.1203C195.648 41.4263 195.138 40.8794 194.482 40.4796C193.833 40.0798 193.071 39.8798 192.196 39.8798C191.246 39.8798 190.416 40.1137 189.707 40.5814C189.005 41.0416 188.462 41.6451 188.077 42.3919C187.7 43.1312 187.512 43.9346 187.512 44.8021V46.7823C187.512 47.9441 187.715 48.9323 188.123 49.747C188.538 50.5617 189.115 51.1841 189.854 51.6141C190.593 52.0365 191.457 52.2477 192.445 52.2477C193.086 52.2477 193.671 52.1572 194.199 51.9762C194.727 51.7876 195.184 51.5085 195.568 51.1388C195.953 50.7692 196.247 50.3128 196.451 49.7696L199.653 50.3467C199.397 51.2897 198.937 52.1157 198.273 52.8248C197.616 53.5264 196.79 54.0733 195.795 54.4656C194.806 54.8503 193.679 55.0427 192.411 55.0427ZM210.943 55.0427C209.261 55.0427 207.813 54.6617 206.598 53.8998C205.391 53.1303 204.463 52.0705 203.815 50.7201C203.166 49.3698 202.841 47.8234 202.841 46.0808C202.841 44.3155 203.173 42.7578 203.837 41.4074C204.501 40.0496 205.436 38.9897 206.643 38.2278C207.85 37.4659 209.272 37.0849 210.909 37.0849C212.23 37.0849 213.406 37.3301 214.44 37.8204C215.473 38.3032 216.307 38.9821 216.941 39.8572C217.582 40.7323 217.963 41.7545 218.083 42.9237H214.791C214.61 42.109 214.195 41.4074 213.546 40.819C212.905 40.2306 212.045 39.9364 210.966 39.9364C210.023 39.9364 209.197 40.1854 208.488 40.6832C207.786 41.1736 207.239 41.8752 206.847 42.7879C206.455 43.6932 206.259 44.7644 206.259 46.0016C206.259 47.2689 206.451 48.3627 206.836 49.2831C207.221 50.2034 207.764 50.9163 208.465 51.4217C209.174 51.9271 210.008 52.1798 210.966 52.1798C211.607 52.1798 212.188 52.0629 212.709 51.8291C213.237 51.5877 213.678 51.2444 214.032 50.7993C214.395 50.3543 214.647 49.8187 214.791 49.1925H218.083C217.963 50.3166 217.597 51.3199 216.986 52.2025C216.375 53.0851 215.556 53.7791 214.53 54.2845C213.512 54.79 212.316 55.0427 210.943 55.0427ZM224.813 48.7965L224.791 44.6663H225.379L232.304 37.3112H236.355L228.457 45.6847H227.925L224.813 48.7965ZM221.702 54.6919V31.5177H225.085V54.6919H221.702ZM232.678 54.6919L226.454 46.4315L228.785 44.0666L236.83 54.6919H232.678ZM248.497 43.4329V46.3637H238.222V43.4329H248.497ZM253.006 54.6919V37.3112H256.389V54.6919H253.006ZM254.715 34.6294C254.126 34.6294 253.621 34.4333 253.198 34.041C252.784 33.6412 252.576 33.166 252.576 32.6153C252.576 32.057 252.784 31.5818 253.198 31.1895C253.621 30.7897 254.126 30.5898 254.715 30.5898C255.303 30.5898 255.805 30.7897 256.22 31.1895C256.642 31.5818 256.853 32.057 256.853 32.6153C256.853 33.166 256.642 33.6412 256.22 34.041C255.805 34.4333 255.303 34.6294 254.715 34.6294ZM264.324 44.3721V54.6919H260.941V37.3112H264.189V40.1401H264.404C264.803 39.2198 265.43 38.4805 266.282 37.9223C267.142 37.364 268.225 37.0849 269.53 37.0849C270.714 37.0849 271.751 37.3338 272.641 37.8317C273.532 38.3221 274.222 39.0538 274.712 40.0269C275.202 41.0001 275.448 42.2033 275.448 43.6366V54.6919H272.064V44.044C272.064 42.7842 271.736 41.7997 271.08 41.0906C270.424 40.374 269.522 40.0156 268.375 40.0156C267.591 40.0156 266.893 40.1854 266.282 40.5248C265.679 40.8643 265.199 41.3622 264.845 42.0185C264.498 42.6672 264.324 43.4518 264.324 44.3721Z" fill="#E8EDFB"/>
<path d="M144.221 12.6519L141.642 15.9671C140.595 17.3138 141.554 19.276 143.26 19.276V19.276C143.869 19.276 144.446 19.5462 144.835 20.0136L146.388 21.877C147.335 23.0137 148.79 23.6158 150.263 23.4689C169.317 21.5678 169.898 18.822 161.394 12.6519" stroke="#E8EDFB" stroke-width="1.80355"/>
<path d="M152.917 15.6903C149.824 10.2505 149.295 7.19847 152.917 1.75903C154.09 3.3702 154.943 4.77181 155.452 6.08797M152.917 15.6903C154.662 13.4715 155.642 11.65 155.922 9.9018M152.917 15.6903C159.967 15.8083 162.309 13.2741 164.829 6.08797H161.394M155.452 6.08797L156.638 4.93985C158.164 3.46153 160.71 4.07604 161.394 6.08797V6.08797M155.452 6.08797C155.961 7.40329 156.126 8.63328 155.922 9.9018M161.394 6.08797L155.922 9.9018" stroke="#E8EDFB" stroke-width="1.80355"/>
<path d="M153.289 15.6903C156.382 10.2505 156.911 7.19847 153.289 1.75903C152.116 3.3702 151.263 4.77181 150.754 6.08797M153.289 15.6903C151.544 13.4715 150.564 11.65 150.284 9.9018M153.289 15.6903C146.239 15.8083 143.897 13.2741 141.377 6.08797H144.812M150.754 6.08797L149.569 4.93985C148.042 3.46153 145.496 4.07604 144.812 6.08797V6.08797M150.754 6.08797C150.245 7.40329 150.08 8.63328 150.284 9.9018M144.812 6.08797L150.284 9.9018" stroke="#E8EDFB" stroke-width="1.80355"/>
<line x1="9.85767" y1="13.1577" x2="133.699" y2="13.1577" stroke="#E8EDFB" stroke-width="2.44625"/>
<line x1="172.011" y1="13.1577" x2="295.853" y2="13.1577" stroke="#E8EDFB" stroke-width="2.44625"/>
<line x1="9.85767" y1="19.2665" x2="133.699" y2="19.2665" stroke="#E8EDFB" stroke-width="2.44625"/>
<line x1="172.011" y1="19.2665" x2="295.853" y2="19.2665" stroke="#E8EDFB" stroke-width="2.44625"/>
</svg>
